<svg xmlns="http://www.w3.org/2000/svg" width="1800" height="85"><path d="M762,-57L1070,186L995,-91Z" fill="#fd9b2c" stroke="#fd9b2c" stroke-width="1.51"/><path d="M762,-57L721,239L1070,186Z" fill="#f99127" stroke="#f99127" stroke-width="1.51"/><path d="M1070,186L1293,-119L995,-91Z" fill="#f9942a" stroke="#f9942a" stroke-width="1.51"/><path d="M1070,186L1343,165L1293,-119Z" fill="#f4811d" stroke="#f4811d" stroke-width="1.51"/><path d="M721,239L1052,501L1070,186Z" fill="#e77416" stroke="#e77416" stroke-width="1.51"/><path d="M721,239L745,501L1052,501Z" fill="#d76f19" stroke="#d76f19" stroke-width="1.51"/><path d="M1307,491L1343,165L1070,186Z" fill="#e2660f" stroke="#e2660f" stroke-width="1.51"/><path d="M721,239L493,497L745,501Z" fill="#d87b23" stroke="#d87b23" stroke-width="1.51"/><path d="M762,-57L465,195L721,239Z" fill="#fa9d31" stroke="#fa9d31" stroke-width="1.51"/><path d="M762,-57L443,-71L465,195Z" fill="#feb13e" stroke="#feb13e" stroke-width="1.51"/><path d="M425,-387L443,-71L762,-57Z" fill="#ffcb60" stroke="#ffcb60" stroke-width="1.51"/><path d="M751,-438L762,-57L995,-91Z" fill="#ffbd56" stroke="#ffbd56" stroke-width="1.51"/><path d="M1293,-119L1059,-404L995,-91Z" fill="#fcae50" stroke="#fcae50" stroke-width="1.51"/><path d="M1059,-404L751,-438L995,-91Z" fill="#ffc168" stroke="#ffc168" stroke-width="1.51"/><path d="M1052,501L1307,491L1070,186Z" fill="#d4600e" stroke="#d4600e" stroke-width="1.51"/><path d="M465,195L493,497L721,239Z" fill="#e98b2b" stroke="#e98b2b" stroke-width="1.51"/><path d="M1653,-358L1294,-353L1293,-119Z" fill="#f3a556" stroke="#f3a556" stroke-width="1.51"/><path d="M1293,-119L1294,-353L1059,-404Z" fill="#fbb05e" stroke="#fbb05e" stroke-width="1.51"/><path d="M751,-438L425,-387L762,-57Z" fill="#ffd073" stroke="#ffd073" stroke-width="1.51"/><path d="M1343,165L1609,135L1293,-119Z" fill="#ed7b19" stroke="#ed7b19" stroke-width="1.51"/><path d="M1602,476L1609,135L1343,165Z" fill="#d85b09" stroke="#d85b09" stroke-width="1.51"/><path d="M465,195L198,212L493,497Z" fill="#ec943c" stroke="#ec943c" stroke-width="1.51"/><path d="M443,-71L198,212L465,195Z" fill="#fcad49" stroke="#fcad49" stroke-width="1.51"/><path d="M141,-94L198,212L443,-71Z" fill="#ffbf5b" stroke="#ffbf5b" stroke-width="1.51"/><path d="M425,-387L141,-94L443,-71Z" fill="#ffd675" stroke="#ffd675" stroke-width="1.51"/><path d="M1609,135L1669,-137L1293,-119Z" fill="#eb8524" stroke="#eb8524" stroke-width="1.51"/><path d="M1307,491L1602,476L1343,165Z" fill="#cc5307" stroke="#cc5307" stroke-width="1.51"/><path d="M1609,135L1914,192L1669,-137Z" fill="#dc6c14" stroke="#dc6c14" stroke-width="1.51"/><path d="M198,212L180,487L493,497Z" fill="#dd8e41" stroke="#dd8e41" stroke-width="1.51"/><path d="M-151,514L180,487L198,212Z" fill="#de9551" stroke="#de9551" stroke-width="1.51"/><path d="M751,-438L210,-407L425,-387Z" fill="#ffe191" stroke="#ffe191" stroke-width="1.51"/><path d="M425,-387L210,-407L141,-94Z" fill="#ffe392" stroke="#ffe392" stroke-width="1.51"/><path d="M1294,-353L1653,-358L1059,-404Z" fill="#f9b066" stroke="#f9b066" stroke-width="1.51"/><path d="M1059,-404L1895,-369L751,-438Z" fill="#fdb66e" stroke="#fdb66e" stroke-width="1.51"/><path d="M1669,-137L1653,-358L1293,-119Z" fill="#ed9946" stroke="#ed9946" stroke-width="1.51"/><path d="M1669,-137L1895,-369L1653,-358Z" fill="#e29852" stroke="#e29852" stroke-width="1.51"/><path d="M1602,476L1914,192L1609,135Z" fill="#cd5106" stroke="#cd5106" stroke-width="1.51"/><path d="M-138,-91L-121,136L141,-94Z" fill="#ffcd74" stroke="#ffcd74" stroke-width="1.51"/><path d="M141,-94L-121,136L198,212Z" fill="#ffbb63" stroke="#ffbb63" stroke-width="1.51"/><path d="M-62,-357L-138,-91L141,-94Z" fill="#ffe18f" stroke="#ffe18f" stroke-width="1.51"/><path d="M1602,476L1863,516L1914,192Z" fill="#b44103" stroke="#b44103" stroke-width="1.51"/><path d="M1307,491L1863,516L1602,476Z" fill="#b04004" stroke="#b04004" stroke-width="1.51"/><path d="M1052,501L1863,516L1307,491Z" fill="#b64908" stroke="#b64908" stroke-width="1.51"/><path d="M745,501L1863,516L1052,501Z" fill="#bd520d" stroke="#bd520d" stroke-width="1.51"/><path d="M210,-407L-62,-357L141,-94Z" fill="#ffe79c" stroke="#ffe79c" stroke-width="1.51"/><path d="M1914,192L1948,-114L1669,-137Z" fill="#d6751f" stroke="#d6751f" stroke-width="1.51"/><path d="M1653,-358L1895,-369L1059,-404Z" fill="#f1a662" stroke="#f1a662" stroke-width="1.51"/><path d="M1948,-114L1895,-369L1669,-137Z" fill="#d98d42" stroke="#d98d42" stroke-width="1.51"/><path d="M-121,136L-151,514L198,212Z" fill="#f1a45c" stroke="#f1a45c" stroke-width="1.51"/><path d="M180,487L-151,514L493,497Z" fill="#ca8a49" stroke="#ca8a49" stroke-width="1.51"/><path d="M493,497L-151,514L745,501Z" fill="#c88139" stroke="#c88139" stroke-width="1.51"/><path d="M745,501L-151,514L1863,516Z" fill="#c4691a" stroke="#c4691a" stroke-width="1.51"/><path d="M-349,239L-151,514L-121,136Z" fill="#f2a866" stroke="#f2a866" stroke-width="1.51"/><path d="M-424,-70L-121,136L-138,-91Z" fill="#ffd07e" stroke="#ffd07e" stroke-width="1.51"/><path d="M-424,-70L-349,239L-121,136Z" fill="#ffc178" stroke="#ffc178" stroke-width="1.51"/><path d="M1948,-114L2201,-352L1895,-369Z" fill="#cd8c4e" stroke="#cd8c4e" stroke-width="1.51"/><path d="M1914,192L2185,161L1948,-114Z" fill="#c66113" stroke="#c66113" stroke-width="1.51"/><path d="M2171,430L2185,161L1914,192Z" fill="#b24707" stroke="#b24707" stroke-width="1.51"/><path d="M2185,161L2206,-72L1948,-114Z" fill="#c16b1d" stroke="#c16b1d" stroke-width="1.51"/><path d="M2185,161L2171,430L2206,-72Z" fill="#b34f0e" stroke="#b34f0e" stroke-width="1.51"/><path d="M1863,516L2171,430L1914,192Z" fill="#aa3c04" stroke="#aa3c04" stroke-width="1.51"/><path d="M-62,-357L-352,-340L-138,-91Z" fill="#ffeea9" stroke="#ffeea9" stroke-width="1.51"/><path d="M210,-407L-352,-340L-62,-357Z" fill="#fff2b1" stroke="#fff2b1" stroke-width="1.51"/><path d="M-352,-340L-424,-70L-138,-91Z" fill="#ffe69c" stroke="#ffe69c" stroke-width="1.51"/><path d="M2206,-72L2201,-352L1948,-114Z" fill="#c4803a" stroke="#c4803a" stroke-width="1.51"/><path d="M1895,-369L2201,-352L751,-438Z" fill="#eea362" stroke="#eea362" stroke-width="1.51"/><path d="M-349,239L-425,506L-151,514Z" fill="#de9c66" stroke="#de9c66" stroke-width="1.51"/><path d="M-424,-70L-425,506L-349,239Z" fill="#fbb275" stroke="#fbb275" stroke-width="1.51"/></svg>